<svg width="100%" viewBox="0 0 680 820" xmlns="http://www.w3.org/2000/svg" style="font-family: sans-serif; background: white;">
<defs>
  <marker id="arrow" viewBox="0 0 10 10" refX="8" refY="5" markerWidth="6" markerHeight="6" orient="auto-start-reverse">
    <path d="M2 1L8 5L2 9" fill="none" stroke="context-stroke" stroke-width="1.5" stroke-linecap="round" stroke-linejoin="round"/>
  </marker>
</defs>

<!-- Legend -->
<rect x="40" y="20" width="12" height="12" rx="2" fill="#1D9E75" stroke="#0F6E56" stroke-width="0.5"/>
<text x="58" y="31" font-size="12" fill="#444">Ingest / event</text>
<rect x="155" y="20" width="12" height="12" rx="2" fill="#7F77DD" stroke="#534AB7" stroke-width="0.5"/>
<text x="173" y="31" font-size="12" fill="#444">Processing</text>
<rect x="260" y="20" width="12" height="12" rx="2" fill="#BA7517" stroke="#854F0B" stroke-width="0.5"/>
<text x="278" y="31" font-size="12" fill="#444">Storage tiers</text>
<rect x="368" y="20" width="12" height="12" rx="2" fill="#D85A30" stroke="#993C1D" stroke-width="0.5"/>
<text x="386" y="31" font-size="12" fill="#444">AI / signals</text>
<rect x="466" y="20" width="12" height="12" rx="2" fill="#888780" stroke="#5F5E5A" stroke-width="0.5"/>
<text x="484" y="31" font-size="12" fill="#444">Observability</text>

<!-- ROW 1: Coinbase WebSocket -->
<rect x="240" y="52" width="200" height="44" rx="8" fill="#E1F5EE" stroke="#0F6E56" stroke-width="0.5"/>
<text x="340" y="71" text-anchor="middle" font-size="14" font-weight="500" fill="#085041">Coinbase WebSocket</text>
<text x="340" y="87" text-anchor="middle" font-size="12" fill="#0F6E56">Real-time sub-second ticks</text>

<line x1="340" y1="96" x2="340" y2="118" stroke="#888" stroke-width="1.5" marker-end="url(#arrow)"/>

<!-- ROW 2: Poller -->
<rect x="240" y="118" width="200" height="44" rx="8" fill="#E1F5EE" stroke="#0F6E56" stroke-width="0.5"/>
<text x="340" y="137" text-anchor="middle" font-size="14" font-weight="500" fill="#085041">Poller</text>
<text x="340" y="153" text-anchor="middle" font-size="12" fill="#0F6E56">Python · pushes to Iggy</text>

<line x1="340" y1="162" x2="340" y2="184" stroke="#888" stroke-width="1.5" marker-end="url(#arrow)"/>
<line x1="440" y1="140" x2="530" y2="140" stroke="#888" stroke-width="1.5" marker-end="url(#arrow)"/>

<!-- ROW 3: Iggy -->
<rect x="240" y="184" width="200" height="44" rx="8" fill="#E1F5EE" stroke="#0F6E56" stroke-width="0.5"/>
<text x="340" y="203" text-anchor="middle" font-size="14" font-weight="500" fill="#085041">Apache Iggy</text>
<text x="340" y="219" text-anchor="middle" font-size="12" fill="#0F6E56">Rust event bus · 3-partition topic</text>

<!-- Bridge -->
<rect x="530" y="118" width="110" height="44" rx="8" fill="#F1EFE8" stroke="#5F5E5A" stroke-width="0.5"/>
<text x="585" y="137" text-anchor="middle" font-size="14" font-weight="500" fill="#2C2C2A">Bridge</text>
<text x="585" y="153" text-anchor="middle" font-size="12" fill="#5F5E5A">Iggy → Prometheus</text>

<line x1="340" y1="228" x2="340" y2="254" stroke="#888" stroke-width="1.5" marker-end="url(#arrow)"/>

<!-- ROW 4: Flink -->
<rect x="200" y="254" width="280" height="44" rx="8" fill="#EEEDFE" stroke="#534AB7" stroke-width="0.5"/>
<text x="340" y="273" text-anchor="middle" font-size="14" font-weight="500" fill="#26215C">Apache Flink 1.20</text>
<text x="340" y="289" text-anchor="middle" font-size="12" fill="#534AB7">OHLCV candles · STATEMENT SET fan-out</text>

<line x1="250" y1="298" x2="130" y2="330" stroke="#888" stroke-width="1.5" marker-end="url(#arrow)"/>
<line x1="316" y1="298" x2="290" y2="330" stroke="#888" stroke-width="1.5" marker-end="url(#arrow)"/>
<line x1="400" y1="298" x2="450" y2="330" stroke="#888" stroke-width="1.5" marker-end="url(#arrow)"/>

<!-- ROW 5: Storage tiers -->
<rect x="40" y="330" width="160" height="56" rx="8" fill="#FAEEDA" stroke="#854F0B" stroke-width="0.5"/>
<text x="120" y="352" text-anchor="middle" font-size="14" font-weight="500" fill="#412402">Apache Fluss</text>
<text x="120" y="368" text-anchor="middle" font-size="12" fill="#854F0B">Hot tier</text>
<text x="120" y="382" text-anchor="middle" font-size="12" fill="#854F0B">Sub-second SQL</text>

<rect x="220" y="330" width="160" height="56" rx="8" fill="#FAEEDA" stroke="#854F0B" stroke-width="0.5"/>
<text x="300" y="352" text-anchor="middle" font-size="14" font-weight="500" fill="#412402">Apache Paimon</text>
<text x="300" y="368" text-anchor="middle" font-size="12" fill="#854F0B">Warm tier</text>
<text x="300" y="382" text-anchor="middle" font-size="12" fill="#854F0B">1-min OHLCV candles</text>

<rect x="400" y="330" width="160" height="56" rx="8" fill="#FAEEDA" stroke="#854F0B" stroke-width="0.5"/>
<text x="480" y="352" text-anchor="middle" font-size="14" font-weight="500" fill="#412402">Apache Iceberg</text>
<text x="480" y="368" text-anchor="middle" font-size="12" fill="#854F0B">Cold tier</text>
<text x="480" y="382" text-anchor="middle" font-size="12" fill="#854F0B">Raw tick archive</text>

<line x1="480" y1="386" x2="480" y2="414" stroke="#888" stroke-width="1.5" marker-end="url(#arrow)"/>
<line x1="300" y1="386" x2="300" y2="484" stroke="#888" stroke-width="1.5" marker-end="url(#arrow)"/>

<!-- Replay service -->
<rect x="390" y="414" width="180" height="44" rx="8" fill="#E1F5EE" stroke="#0F6E56" stroke-width="0.5"/>
<text x="480" y="433" text-anchor="middle" font-size="14" font-weight="500" fill="#085041">Replay service</text>
<text x="480" y="449" text-anchor="middle" font-size="12" fill="#0F6E56">Iceberg → Iggy · 60× speed</text>

<!-- Replay → Iggy loop -->
<path d="M570 436 L620 436 L620 206 L442 206" fill="none" stroke="#aaa" stroke-width="1" marker-end="url(#arrow)"/>

<!-- ROW 6: AI layer -->
<rect x="180" y="484" width="160" height="56" rx="8" fill="#FAECE7" stroke="#993C1D" stroke-width="0.5"/>
<text x="260" y="504" text-anchor="middle" font-size="14" font-weight="500" fill="#4A1B0C">Lancer</text>
<text x="260" y="520" text-anchor="middle" font-size="12" fill="#993C1D">LanceDB 16k+ vectors</text>
<text x="260" y="536" text-anchor="middle" font-size="12" fill="#993C1D">Pattern matcher</text>

<!-- Iggy → Lancer signal -->
<path d="M340 228 L340 240 L150 240 L150 512 L178 512" fill="none" stroke="#aaa" stroke-width="1" marker-end="url(#arrow)"/>

<rect x="380" y="484" width="160" height="56" rx="8" fill="#FAECE7" stroke="#993C1D" stroke-width="0.5"/>
<text x="460" y="504" text-anchor="middle" font-size="14" font-weight="500" fill="#4A1B0C">Analyst</text>
<text x="460" y="520" text-anchor="middle" font-size="12" fill="#993C1D">Ollama · Llama 3 8B</text>
<text x="460" y="536" text-anchor="middle" font-size="12" fill="#993C1D">RAG commentary</text>

<line x1="300" y1="540" x2="300" y2="600" stroke="#888" stroke-width="1.5" marker-end="url(#arrow)"/>
<line x1="440" y1="540" x2="380" y2="600" stroke="#888" stroke-width="1.5" marker-end="url(#arrow)"/>

<!-- ROW 7: Consensus -->
<rect x="180" y="600" width="220" height="56" rx="8" fill="#EEEDFE" stroke="#534AB7" stroke-width="0.5"/>
<text x="290" y="620" text-anchor="middle" font-size="14" font-weight="500" fill="#26215C">Consensus engine</text>
<text x="290" y="636" text-anchor="middle" font-size="12" fill="#534AB7">Paper trading · Flink clearing house</text>
<text x="290" y="652" text-anchor="middle" font-size="12" fill="#534AB7">Paimon ledger · DuckDB audit</text>

<!-- Observability column -->
<rect x="530" y="190" width="110" height="44" rx="8" fill="#F1EFE8" stroke="#5F5E5A" stroke-width="0.5"/>
<text x="585" y="209" text-anchor="middle" font-size="14" font-weight="500" fill="#2C2C2A">Prometheus</text>
<text x="585" y="225" text-anchor="middle" font-size="12" fill="#5F5E5A">Metrics scrape</text>

<line x1="585" y1="162" x2="585" y2="188" stroke="#888" stroke-width="1.5" marker-end="url(#arrow)"/>

<rect x="530" y="260" width="110" height="56" rx="8" fill="#F1EFE8" stroke="#5F5E5A" stroke-width="0.5"/>
<text x="585" y="280" text-anchor="middle" font-size="14" font-weight="500" fill="#2C2C2A">Grafana</text>
<text x="585" y="296" text-anchor="middle" font-size="12" fill="#5F5E5A">5 dashboards</text>
<text x="585" y="310" text-anchor="middle" font-size="12" fill="#5F5E5A">AI annotations</text>

<line x1="585" y1="234" x2="585" y2="258" stroke="#888" stroke-width="1.5" marker-end="url(#arrow)"/>

<!-- Lancer + Analyst → Grafana annotations (dashed) -->
<path d="M340 512 L340 560 L620 560 L620 290" fill="none" stroke="#aaa" stroke-width="1" stroke-dasharray="4 3" marker-end="url(#arrow)"/>
<path d="M540 512 L620 512 L620 318" fill="none" stroke="#aaa" stroke-width="1" stroke-dasharray="4 3" marker-end="url(#arrow)"/>

</svg>
